<?xml version="1.0" encoding="UTF-8" standalone="no"?>
<!DOCTYPE svg PUBLIC "-//W3C//DTD SVG 1.1//EN" "http://www.w3.org/Graphics/SVG/1.1/DTD/svg11.dtd">
<svg width="60.00" height="60.00" viewBox="0.00 0.00 500.00 500.00" xmlns="http://www.w3.org/2000/svg" xmlns:xlink="http://www.w3.org/1999/xlink">
<g stroke-linecap="round" transform="translate(-272.00, -236.00)" id="레이어_1">
<path d="M403.59,561.66 C403.65,562.08 403.87,562.71 404.84,565.02 C409.17,575.46 426.62,610.74 440.16,624.76 C443.14,627.81 457.19,639.29 461.44,643.22 C464.78,646.16 480.66,655.11 484.34,657.03 C489.06,659.43 494.60,661.81 497.87,662.24 C500.54,662.59 508.66,664.70 511.82,665.04 C517.09,665.57 527.88,665.18 528.47,665.15 C528.74,665.13 529.20,665.11 529.86,665.09" fill="none" stroke="rgb(0, 0, 0)" stroke-width="10.00" stroke-opacity="1.00" stroke-linejoin="round"/>
<path d="M537.31,662.64 C537.29,662.60 537.28,662.56 537.26,662.54 C537.24,662.51 537.19,662.46 537.11,662.38 C537.15,662.63 537.57,662.67 539.41,662.46 C543.18,662.01 549.12,659.84 554.01,657.32 C561.69,653.29 571.60,648.78 577.16,645.30 C582.61,641.86 592.29,631.86 598.01,624.82 C602.34,619.38 610.35,606.39 612.51,603.56 C615.04,599.99 622.82,584.79 625.63,577.91 C628.35,571.20 631.34,560.01 631.44,558.98 C631.44,558.98 630.73,560.09 630.73,560.09" fill="none" stroke="rgb(0, 0, 0)" stroke-width="10.00" stroke-opacity="1.00" stroke-linejoin="round"/>
<path d="M375.17,521.75 C375.17,521.75 373.79,520.03 373.79,520.03 C370.39,523.43 367.78,527.34 367.68,530.65 C367.65,533.83 369.37,541.03 370.45,543.36 C371.73,545.99 375.55,550.39 379.92,554.92 C383.78,558.82 386.87,561.65 388.88,562.84 C391.51,564.41 394.64,568.29 396.90,572.36 C399.94,577.99 402.19,582.32 403.14,582.77 C405.04,583.61 409.24,583.15 409.97,583.13 C410.20,583.12 410.40,583.19 410.58,583.33" fill="none" stroke="rgb(0, 0, 0)" stroke-width="10.00" stroke-opacity="1.00" stroke-linejoin="round"/>
<path d="M654.86,503.51 C654.82,503.10 654.85,502.79 654.94,502.56 C655.03,502.37 657.08,499.53 657.54,499.19 C658.62,498.45 661.56,498.27 662.87,498.92 C664.08,499.57 665.28,501.20 665.80,502.65 C666.82,505.88 667.11,511.06 666.86,515.13 C666.58,519.12 665.20,525.74 663.79,528.61 C663.01,530.15 656.01,539.78 655.91,540.43 C655.86,540.80 655.87,541.69 655.94,543.12" fill="none" stroke="rgb(0, 0, 0)" stroke-width="10.00" stroke-opacity="1.00" stroke-linejoin="round"/>
<path d="M652.51,546.06 C652.14,545.85 651.02,547.27 648.64,551.87 C642.96,562.80 640.51,566.91 639.36,567.82 C637.19,569.47 635.29,569.99 634.04,569.16 C633.80,569.00 633.47,568.66 633.03,568.15" fill="none" stroke="rgb(0, 0, 0)" stroke-width="10.00" stroke-opacity="1.00" stroke-linejoin="round"/>
<path d="M505.16,503.32 C505.01,503.38 504.91,503.59 504.87,503.96 C504.61,506.27 504.54,512.00 505.12,516.14 C505.69,520.24 506.79,528.73 506.76,530.36 C506.69,534.07 504.31,557.78 504.41,561.36 C504.51,564.39 504.98,566.69 505.83,568.41 C506.54,569.78 507.39,570.82 509.53,573.11" fill="none" stroke="rgb(0, 0, 0)" stroke-width="10.00" stroke-opacity="1.00" stroke-linejoin="round"/>
<path d="M488.59,604.98 C488.59,604.98 487.94,605.26 487.94,605.26 C490.53,606.69 491.91,607.24 494.01,607.52 C502.67,608.81 517.32,609.13 523.16,608.65 C530.21,608.03 543.85,604.21 549.98,601.27 C552.37,600.09 555.57,598.51 556.38,598.09" fill="none" stroke="rgb(0, 0, 0)" stroke-width="10.00" stroke-opacity="1.00" stroke-linejoin="round"/>
<path d="M391.83,352.35 C391.83,352.35 391.51,352.32 391.51,352.32 C391.53,352.31 391.58,352.34 391.57,352.35 C386.03,358.13 378.03,369.42 375.70,373.93 C372.51,380.16 367.72,395.44 365.65,403.61 C363.79,410.97 360.82,426.52 360.18,433.54 C359.71,438.83 359.16,457.31 359.36,464.46 C359.59,469.70 360.04,474.60 360.83,478.18 C362.38,484.99 370.19,502.03 371.78,504.83 C372.02,505.25 372.59,506.19 373.50,507.63" fill="none" stroke="rgb(0, 0, 0)" stroke-width="10.00" stroke-opacity="1.00" stroke-linejoin="round"/>
<path d="M429.67,392.64 C429.67,392.64 429.58,392.69 429.58,392.69 C427.38,395.17 421.10,402.26 420.29,403.22 C417.87,406.10 409.68,421.94 407.50,427.06 C405.78,431.14 399.81,448.19 397.34,455.69 C394.10,465.88 392.72,472.77 391.25,482.77 C390.21,490.52 390.04,505.51 390.30,516.11 C390.66,526.91 391.34,532.77 392.44,536.74 C393.13,539.14 394.02,541.18 394.88,542.39 C395.04,542.61 395.37,543.02 395.85,543.61" fill="none" stroke="rgb(0, 0, 0)" stroke-width="10.00" stroke-opacity="1.00" stroke-linejoin="round"/>
<path d="M378.30,520.28 C378.30,520.28 377.69,520.73 377.69,520.73 C380.02,527.81 384.87,535.70 386.95,537.83 C389.18,540.07 394.04,541.74 395.24,542.03 C395.48,542.08 395.72,542.12 395.95,542.14" fill="none" stroke="rgb(0, 0, 0)" stroke-width="10.00" stroke-opacity="1.00" stroke-linejoin="round"/>
<path d="M409.28,333.33 C408.92,333.17 408.69,332.91 408.60,332.54 C408.25,331.08 408.52,328.13 409.16,326.59 C410.43,323.72 413.46,320.57 417.14,318.61 C420.39,316.91 423.48,316.13 426.57,316.14 C426.94,316.14 427.48,316.12 428.20,316.07" fill="none" stroke="rgb(0, 0, 0)" stroke-width="10.00" stroke-opacity="1.00" stroke-linejoin="round"/>
<path d="M438.30,308.62 C438.30,308.62 436.77,308.03 436.77,308.03 C437.59,305.24 438.24,303.95 439.79,302.38 C443.62,298.43 448.65,294.41 452.20,292.56 C456.02,290.61 470.41,285.41 474.90,284.32 C479.08,283.33 496.50,281.93 504.00,282.66 C510.17,283.29 526.54,286.58 532.93,288.70 C542.31,291.85 569.33,304.26 569.69,304.46 C571.11,305.26 582.27,312.15 582.74,312.35 C583.21,312.54 584.18,312.83 585.65,313.23" fill="none" stroke="rgb(0, 0, 0)" stroke-width="10.00" stroke-opacity="1.00" stroke-linejoin="round"/>
<path d="M595.55,318.52 C595.55,318.52 596.19,316.15 596.19,316.15 C600.29,317.23 604.57,318.47 607.89,320.23 C611.73,322.37 617.02,324.82 618.24,325.45 C622.34,327.61 635.43,339.77 636.74,341.20 C641.39,346.56 653.86,360.32 655.42,362.55 C656.35,363.90 664.48,382.95 666.27,388.73 C668.44,395.85 671.36,409.27 672.07,416.30 C672.76,423.39 672.26,435.96 671.25,446.87 C670.41,454.58 667.79,472.78 666.57,478.08 C665.32,483.42 662.05,493.45 660.53,496.94 C660.13,497.85 658.82,501.26 658.29,502.63" fill="none" stroke="rgb(0, 0, 0)" stroke-width="10.00" stroke-opacity="1.00" stroke-linejoin="round"/>
<path d="M439.38,388.13 C439.16,388.03 439.48,385.94 440.07,384.01 C440.50,382.70 449.94,375.74 450.44,375.47 C450.79,375.29 451.45,375.03 452.42,374.70" fill="none" stroke="rgb(0, 0, 0)" stroke-width="10.00" stroke-opacity="1.00" stroke-linejoin="round"/>
<path d="M461.45,374.09 C461.74,373.00 463.46,371.63 465.69,371.07 C467.86,370.54 475.73,371.07 480.41,372.60 C482.86,373.43 490.93,376.76 494.39,378.81 C500.00,382.17 511.01,392.36 516.19,398.58 C522.62,406.46 531.59,419.33 531.95,419.92 C533.85,423.15 542.98,444.35 543.05,444.51 C543.13,444.69 543.18,444.75 543.20,444.69" fill="none" stroke="rgb(0, 0, 0)" stroke-width="10.00" stroke-opacity="1.00" stroke-linejoin="round"/>
<path d="M567.12,411.26 C567.12,411.26 567.27,411.24 567.27,411.24 C568.85,415.34 570.40,418.46 573.36,423.53 C575.28,426.87 576.37,432.67 576.51,437.63 C576.53,439.31 576.57,442.09 576.58,443.19" fill="none" stroke="rgb(0, 0, 0)" stroke-width="10.00" stroke-opacity="1.00" stroke-linejoin="round"/>
<path d="M575.75,428.22 C575.64,428.13 575.56,428.07 575.50,428.03 C575.28,427.88 575.18,427.88 575.21,428.01 C575.49,429.10 583.01,435.53 585.00,436.95 C590.28,440.16 605.52,449.56 606.04,449.89 C606.73,450.33 611.99,454.86 615.40,457.32 C620.88,461.16 622.31,461.79 624.71,462.47" fill="none" stroke="rgb(0, 0, 0)" stroke-width="10.00" stroke-opacity="1.00" stroke-linejoin="round"/>
<path d="M631.33,468.91 C631.27,468.89 631.20,468.87 631.14,468.86 C631.07,468.85 630.91,468.82 630.66,468.79 C632.23,472.35 632.48,472.98 634.16,478.03 C635.60,482.40 637.29,488.86 637.86,492.32 C638.94,499.11 638.16,511.88 636.55,522.06 C636.04,525.20 634.95,531.60 634.37,534.85 C634.13,536.07 634.29,537.36 634.86,539.91 C638.90,537.90 655.21,505.55 655.69,503.05 C655.73,502.81 655.68,502.48 655.55,502.04" fill="none" stroke="rgb(0, 0, 0)" stroke-width="10.00" stroke-opacity="1.00" stroke-linejoin="round"/>
<path d="M552.27,434.15 C552.51,434.93 552.99,435.97 554.15,438.17 C554.59,439.00 555.03,439.83 555.46,440.67 C555.46,440.67 555.82,440.71 555.82,440.71" fill="none" stroke="rgb(0, 0, 0)" stroke-width="10.00" stroke-opacity="1.00" stroke-linejoin="round"/>
<path d="M558.10,436.26 C557.98,436.27 557.99,436.36 558.14,436.55 C558.38,436.84 562.65,441.53 563.54,442.77 C563.54,442.77 564.47,442.63 564.47,442.63" fill="none" stroke="rgb(0, 0, 0)" stroke-width="10.00" stroke-opacity="1.00" stroke-linejoin="round"/>
<path d="M566.43,437.83 C566.30,437.73 566.29,437.83 566.38,438.13 C567.02,439.99 568.04,441.78 568.95,442.51 C569.35,442.82 570.36,443.60 570.55,443.81" fill="none" stroke="rgb(0, 0, 0)" stroke-width="10.00" stroke-opacity="1.00" stroke-linejoin="round"/>
<path d="M547.32,474.01 C547.28,474.06 547.25,474.03 547.22,473.91 C547.10,473.32 547.10,472.87 547.23,472.57 C547.37,472.25 552.28,467.42 554.90,465.99 C557.64,464.52 571.49,459.47 574.71,459.13 C575.17,459.09 585.47,459.46 588.87,460.04 C592.58,460.71 600.15,463.51 601.95,464.54 C604.93,466.29 614.61,474.47 615.74,475.44" fill="none" stroke="rgb(0, 0, 0)" stroke-width="10.00" stroke-opacity="1.00" stroke-linejoin="round"/>
<path d="M412.52,484.99 C412.38,484.15 412.33,483.59 412.36,483.31 C412.50,482.12 416.35,476.19 418.91,473.45 C421.58,470.65 426.82,467.30 429.79,466.21 C432.46,465.27 439.77,464.95 441.18,464.91 C445.90,464.80 449.10,465.17 452.99,466.44 C461.57,469.30 469.58,473.38 472.13,475.45 C473.46,476.55 473.68,476.77 473.63,476.90" fill="none" stroke="rgb(0, 0, 0)" stroke-width="10.00" stroke-opacity="1.00" stroke-linejoin="round"/>
<path d="M555.55,511.36 C555.67,510.77 555.80,510.65 555.84,510.57 C556.04,510.18 558.18,505.59 558.64,504.67 C559.62,502.79 561.49,500.62 562.83,499.90 C563.47,499.58 572.35,497.72 574.73,497.56 C578.00,497.35 583.86,498.58 586.16,499.28 C589.09,500.21 593.49,503.31 597.83,506.83 C602.21,510.50 604.98,513.20 606.01,514.75" fill="none" stroke="rgb(0, 0, 0)" stroke-width="10.00" stroke-opacity="1.00" stroke-linejoin="round"/>
<path d="M581.92,501.65 C581.91,500.36 581.12,499.54 579.42,499.36 C577.65,499.21 573.53,501.84 570.53,504.97 C569.29,506.31 568.09,508.54 567.96,509.86 C567.91,510.72 568.85,514.01 569.34,515.17 C570.10,516.85 571.58,518.63 572.87,519.37 C575.01,520.53 579.78,520.27 582.76,519.06 C585.59,517.84 588.77,513.98 589.22,511.66 C589.54,509.60 588.94,506.63 587.72,504.88 C586.11,502.63 581.83,500.13 579.79,499.97 C578.61,499.90 576.54,500.49 574.44,501.41 C574.03,501.59 573.55,501.84 573.00,502.14" fill="none" stroke="rgb(0, 0, 0)" stroke-width="10.00" stroke-opacity="1.00" stroke-linejoin="round"/>
<path d="M469.97,513.52 C469.59,511.69 469.13,510.53 468.27,509.68 C466.43,507.92 458.70,504.52 455.19,504.06 C451.85,503.67 444.69,504.47 442.31,505.29 C439.49,506.30 433.52,510.14 431.15,512.56 C428.86,514.92 425.77,519.21 423.75,522.70 C422.94,524.13 422.75,525.12 422.82,526.78" fill="none" stroke="rgb(0, 0, 0)" stroke-width="10.00" stroke-opacity="1.00" stroke-linejoin="round"/>
<path d="M446.14,508.32 C446.08,508.11 445.51,508.26 444.28,508.89 C442.09,510.05 438.99,513.87 438.49,515.08 C438.06,516.26 438.52,518.75 439.59,521.10 C440.57,523.19 442.23,525.67 443.11,526.37 C443.77,526.87 445.14,527.37 446.67,527.74 C449.02,528.23 454.33,526.60 455.97,525.02 C457.34,523.60 459.13,520.60 459.52,518.81 C459.91,516.72 459.34,513.42 458.32,512.00 C457.98,511.56 454.12,508.30 453.68,508.07 C452.39,507.43 449.88,507.03 448.73,507.21 C446.97,507.56 445.55,508.02 443.07,509.08 C440.81,510.09 439.64,511.45 438.71,514.00 C438.44,514.79 438.18,515.57 437.91,516.36" fill="none" stroke="rgb(0, 0, 0)" stroke-width="10.00" stroke-opacity="1.00" stroke-linejoin="round"/>
</g>
</svg>
